<svg width="24" height="22" viewBox="0 0 24 22" mlns="http://www.w3.org/2000/svg">
	<path fill-rule="evenodd" clip-rule="evenodd" d="M0.101421 9.01707H4.28324V21.6171H0.101421V9.01707Z" />
	<path fill-rule="evenodd" clip-rule="evenodd"
		d="M13.9014 0.617065L7.00142 7.54706C6.58324 7.86206 6.37415 8.38707 6.37415 9.01707V19.5171C6.37415 20.6721 7.31506 21.6171 8.46506 21.6171H17.8741C18.7105 21.6171 19.4423 21.0921 19.756 20.3571L22.8923 12.9021C23.2651 12.1533 23.0613 10.8738 23.1014 10.0671C23.1014 8.91207 22.1605 7.96706 21.0105 7.96706H14.4241L15.4696 3.13707V2.82207C15.4696 2.40207 15.2605 1.98207 15.0514 1.66707L13.9014 0.617065ZM17.8741 19.5171L20.906 12.2721V10.0671H11.8105L13.0651 4.39707L8.46506 9.01707V19.5171H17.8741Z" />
	<path d="M17.8741 19.5171L20.906 12.2721V10.0671H11.8105L13.0651 4.39709L8.46506 9.01709V19.5171H17.8741Z"
		fill="var(--filled, transparent)" />
</svg>
