<svg width="19" height="19" viewBox="0 0 19 19" xmlns="http://www.w3.org/2000/svg">
	<path
		d="M4.0256 8.29823C5.4256 11.0982 7.8256 13.3982 10.6256 14.8982L12.8256 12.6982C13.1256 12.3982 13.5256 12.2982 13.8256 12.4982C14.9256 12.8982 16.1256 13.0982 17.4256 13.0982C18.0256 13.0982 18.4256 13.4982 18.4256 14.0982V17.4982C18.4256 18.0982 18.0256 18.4982 17.4256 18.4982C8.0256 18.4982 0.425598 10.8982 0.425598 1.49823C0.425598 0.89823 0.825598 0.49823 1.4256 0.49823H4.9256C5.5256 0.49823 5.9256 0.89823 5.9256 1.49823C5.9256 2.69823 6.1256 3.89823 6.5256 5.09823C6.6256 5.39823 6.5256 5.79823 6.3256 6.09823L4.0256 8.29823Z" />
</svg>
