<svg width="283" height="215" viewBox="0 0 283 215" xmlns="http://www.w3.org/2000/svg">
	<path
		d="M102.034 43.4337L101.911 43.556C101.052 44.4732 100.07 44.9012 99.1492 44.9012L100.868 41.9049C101.972 40.0093 100.929 38.1748 99.2106 38.1748C97.7991 38.1748 96.6944 38.7252 95.6511 40.5596L94.7305 42.1495L93.9941 43.4337L93.8713 43.556C92.5211 45.0847 91.2324 46.3077 90.4345 46.3077C90.0049 46.3077 89.8208 46.0019 90.2504 45.3293L94.1782 38.4806H95.6511L96.2034 37.6245H94.6691L96.3875 34.6282H94.5464L92.828 37.6245H91.171L90.6186 38.4806H92.2757L88.5934 44.8401C87.7956 46.1854 88.3479 47.4695 89.8208 47.4695C90.8641 47.4695 92.0915 46.6746 93.1962 45.5739C93.1962 47.8975 96.4489 48.3867 98.4128 45.8796H98.8424C99.947 45.8796 101.665 45.207 102.586 44.1063C102.586 43.8005 102.279 43.556 102.034 43.4337ZM98.1059 43.556H98.0445C97.4308 43.556 96.9399 44.0451 96.9399 44.6566C96.9399 44.9012 97.0012 45.0847 97.124 45.2681V45.3293C96.2648 46.7969 94.1782 46.5523 95.2215 44.5955L96.633 42.2107L97.4922 40.7431C98.781 38.5417 100.561 39.3978 99.4561 41.2934L98.1059 43.556Z"
		fill="#766458" />
	<path
		d="M127.503 43.4334L127.38 43.5557C126.03 45.0844 124.373 46.3074 123.084 46.3074C121.979 46.3074 121.304 45.5736 122.102 44.1061L122.286 43.8003C123.452 44.2895 125.723 44.0449 127.073 41.6601L127.319 41.232C128.3 39.5199 127.38 38.2969 125.846 38.2969C124.373 38.2969 123.207 39.0918 122.409 40.4371L120.629 43.4946L120.506 43.6169C119.156 45.1456 117.867 46.3686 117.07 46.3686C116.64 46.3686 116.456 46.0628 116.885 45.3902L119.524 40.7429C120.322 39.3364 119.586 38.358 118.542 38.358C117.745 38.358 116.885 38.7861 115.965 39.7645L118.911 34.6891H117.07L111.976 43.4334L111.853 43.5557C110.503 45.0844 109.214 46.3074 108.416 46.3074C107.987 46.3074 107.803 46.0017 108.232 45.329L112.16 38.4803H113.633L114.185 37.6242H112.651L114.369 34.6279H112.528L110.81 37.6242H109.153L108.6 38.4803H110.257L106.575 44.8399C105.777 46.1851 106.33 47.4693 107.803 47.4693C108.539 47.4693 109.337 47.1024 110.135 46.4909L109.644 47.2858H111.485L114.246 42.455C117.07 38.9084 118.297 39.3976 117.561 40.7429L115.167 44.901C114.369 46.2463 114.922 47.5304 116.394 47.5304C117.499 47.5304 118.727 46.6743 119.831 45.5736C119.893 46.7355 120.875 47.5304 122.347 47.5304C124.434 47.5304 126.521 45.9405 127.994 44.1672C128.055 43.8003 127.748 43.5557 127.503 43.4334ZM124.004 40.8652C125.048 39.0307 126.95 39.3364 125.846 41.232L125.6 41.6601C124.741 43.1277 123.514 43.1277 122.838 42.8831L124.004 40.8652Z"
		fill="#766458" />
	<path
		d="M194.458 43.4336L194.336 43.5559C193.66 44.3509 192.863 45.0235 192.126 45.5739C192.74 43.8005 192.556 41.1711 193.722 38.7863L192.372 38.0525C191.635 39.092 189.978 41.4769 188.26 43.4336L188.137 43.5559C186.787 45.0847 185.498 46.3076 184.7 46.3076C184.271 46.3076 184.087 46.0019 184.516 45.3293L188.444 38.4805H186.603L183.35 44.1674C181.939 45.4515 180.895 46.1242 180.527 46.0019C180.097 45.8184 180.527 45.1458 180.773 44.7178L184.332 38.4805H182.491L179.607 43.4336L179.484 43.5559C178.625 44.4732 177.643 44.9012 176.722 44.9012L178.44 41.9049C179.545 40.0093 178.502 38.1748 176.783 38.1748C175.372 38.1748 174.267 38.7251 173.224 40.5596L172.303 42.1495L171.567 43.4336L171.444 43.5559C170.094 45.0847 168.437 46.3076 167.148 46.3076C166.044 46.3076 165.368 45.5738 166.166 44.1063L166.35 43.8005C167.516 44.2897 169.787 44.0451 171.137 41.6603L171.383 41.2323C172.365 39.5201 171.444 38.2971 169.91 38.2971C168.437 38.2971 167.271 39.092 166.473 40.4373L164.693 43.4948L164.571 43.6171C163.036 45.3904 161.748 46.4911 160.275 47.1026L164.386 40.0704H163.282C163.282 39.3366 162.484 38.2971 161.379 38.2971C160.397 38.2971 158.986 39.092 158.249 40.4373L156.47 43.4948L156.347 43.6171C154.997 45.1458 153.708 46.3688 152.91 46.3688C152.481 46.3688 152.296 46.063 152.726 45.3904L154.567 42.2106C155.181 41.11 154.874 40.4373 154.322 39.7035L153.278 38.4805C153.033 38.1748 153.033 37.7468 153.401 37.441L152.419 36.4015C151.376 37.3187 151.314 38.3582 151.928 39.2143L152.112 39.3978C151.314 40.5596 150.21 42.0883 148.982 43.4948L148.86 43.6171C148 44.5343 147.018 44.9624 146.098 44.9624L147.816 41.966C148.921 40.0704 147.878 38.2359 146.159 38.2359C144.748 38.2359 143.643 38.7863 142.6 40.6208L141.679 42.2106L140.943 43.4948L140.82 43.6171C139.286 45.3904 137.997 46.4911 136.524 47.1026L140.636 40.0704H139.531C139.531 39.3366 138.733 38.2971 137.629 38.2971C136.647 38.2971 135.235 39.092 134.499 40.4373L131.921 44.9012C131.123 46.2465 131.676 47.5306 133.149 47.5306C133.64 47.5306 134.253 47.286 134.928 46.9191L134.437 47.7752C131.983 48.509 130.387 49.5485 130.387 50.8938C130.387 52.6672 133.087 53.0341 134.437 50.7715L135.849 48.3867C137.322 47.9587 138.733 47.0414 140.268 45.635C140.268 47.9587 143.52 48.4479 145.484 45.9407H145.914C147.018 45.9407 148.737 45.2681 149.657 44.1674C150.517 43.1279 151.253 42.2106 152.726 40.2539L152.971 40.5596C153.217 40.8654 153.278 41.2323 153.094 41.5992L151.13 44.9624C150.333 46.3076 150.885 47.5918 152.358 47.5918C153.278 47.5918 154.322 46.9803 155.304 46.1242C155.304 46.9803 155.856 47.5918 156.899 47.5918C157.39 47.5918 158.004 47.3472 158.679 46.9803L158.249 47.7141C155.795 48.4479 154.199 49.4874 154.199 50.8327C154.199 52.606 156.899 52.9729 158.249 50.7104L159.661 48.3256C161.134 47.8364 162.607 46.9803 164.141 45.5127C164.202 46.6745 165.123 47.4695 166.657 47.4695C168.13 47.4695 169.664 46.6134 170.892 45.5127C170.83 47.8975 174.144 48.3867 176.108 45.8796H176.538C177.09 45.8796 177.888 45.6961 178.563 45.3293C178.072 46.6134 178.502 47.4695 179.545 47.4695C180.527 47.4695 181.693 46.5522 182.552 45.6961C182.368 46.6745 182.982 47.4695 184.148 47.4695C185.682 47.4695 187.401 45.8796 188.935 44.1063C189.978 42.8833 190.899 41.5992 191.574 40.7431C190.837 42.6387 191.267 46.063 189.487 46.063C188.874 46.063 188.628 45.3904 188.628 45.3904L187.462 46.0019C187.462 46.0019 187.769 47.4695 189.487 47.4695C189.671 47.4695 189.794 47.4695 189.978 47.4083H190.04C191.942 47.1637 193.783 45.6961 195.133 44.1063C195.072 43.8005 194.765 43.4948 194.458 43.4336ZM168.13 40.8654C169.173 39.0309 171.076 39.3366 169.971 41.2323L169.726 41.6603C168.867 43.1279 167.639 43.1279 166.964 42.8833L168.13 40.8654ZM133.026 50.4046C132.658 51.0773 132.044 51.0161 132.044 50.4658C132.044 49.9766 132.474 49.4263 133.885 48.8759L133.026 50.4046ZM133.885 46.3076C133.455 46.3076 133.271 46.0019 133.701 45.3293L136.279 40.8654C137.26 39.1532 139.224 39.5812 138.304 41.2323L136.892 43.6782C135.788 45.4516 134.622 46.3076 133.885 46.3076ZM145.177 43.5559H145.116C144.502 43.5559 144.011 44.0451 144.011 44.6566C144.011 44.9012 144.073 45.0847 144.195 45.2681V45.3293C143.336 46.7968 141.25 46.5522 142.293 44.5955L143.704 42.2106L144.564 40.7431C145.852 38.5417 147.632 39.3978 146.528 41.2934L145.177 43.5559ZM156.715 50.4046C156.347 51.0773 155.733 51.0161 155.733 50.4658C155.733 49.9766 156.163 49.4263 157.574 48.8759L156.715 50.4046ZM157.574 46.3076C157.145 46.3076 156.961 46.0019 157.39 45.3293L159.968 40.8654C160.95 39.1532 162.914 39.5812 161.993 41.2323L160.581 43.6782C159.477 45.4516 158.311 46.3076 157.574 46.3076ZM175.679 43.5559H175.617C175.004 43.5559 174.513 44.0451 174.513 44.6566C174.513 44.9012 174.574 45.0847 174.697 45.2681V45.3293C173.838 46.7968 171.751 46.5522 172.794 44.5955L174.206 42.2106L175.065 40.7431C176.354 38.5417 178.134 39.3978 177.029 41.2934L175.679 43.5559Z"
		fill="#766458" />
	<path d="M80.4923 41.4761H62.7561V42.6991H80.4923V41.4761Z" fill="#766458" />
	<path d="M219.805 41.4761H202.068V42.6991H219.805V41.4761Z" fill="#766458" />
	<path
		d="M100.684 0.629211H105.409L104.673 28.0852H95.7739L94.5465 16.7726L93.319 28.0852H84.3589L83.6838 0.629211H88.348L88.7162 23.3767H89.2072L92.2143 0.629211H96.8786L99.8857 23.3767H100.377L100.684 0.629211Z"
		fill="#81B3D3" />
	<path
		d="M120.199 28.1464H107.373V0.629211H120.199V5.3377H112.037V11.9418H118.542V16.6503H112.037V23.3156H120.199V28.1464Z"
		fill="#81B3D3" />
	<path d="M133.333 23.3767V28.1464H122.102V0.629211H126.766V23.3767H133.333Z" fill="#81B3D3" />
	<path
		d="M143.275 17.9956L148.001 16.8949V25.2112C148.001 26.8011 146.65 28.0852 145.116 28.0852H138.058C136.463 28.0852 135.174 26.7399 135.174 25.2112V3.50322C135.174 1.91334 136.463 0.629211 138.058 0.629211H145.116C146.65 0.629211 148.001 1.91334 148.001 3.50322V9.0678L143.275 10.1685V5.27655H139.9V23.3156H143.275V17.9956Z"
		fill="#81B3D3" />
	<path
		d="M160.766 0.629211C162.3 0.629211 163.65 1.91334 163.65 3.50322V25.15C163.65 26.7399 162.3 28.0241 160.766 28.0241H153.708C152.112 28.0241 150.824 26.6788 150.824 25.15V3.50322C150.824 1.91334 152.112 0.629211 153.708 0.629211H160.766ZM158.925 5.3377H155.549V23.3767H158.925V5.3377Z"
		fill="#81B3D3" />
	<path
		d="M178.993 0.629211H183.657V28.0852H178.993V14.5712L177.09 21.5422H172.488L170.647 14.5712V28.0852H165.982V0.629211H170.647L174.82 13.8986L178.993 0.629211Z"
		fill="#81B3D3" />
	<path
		d="M198.816 28.1464H185.989V0.629211H198.816V5.3377H190.653V11.9418H197.159V16.6503H190.653V23.3156H198.816V28.1464Z"
		fill="#81B3D3" />
	<use href="#sedona" width="282" height="48.8" y="83.1" />
	<path
		d="M66.8682 176.555C71.5938 174.965 71.9006 169.095 67.2978 169.095C66.009 169.095 64.4747 170.012 63.4314 171.785L57.1716 182.609C56.8647 183.098 56.6192 183.526 56.251 183.954C54.6554 181.753 55.085 178.451 57.3557 176.983L56.4351 175.821C51.5254 178.94 52.9984 187.868 61.1607 187.868C68.0956 187.868 71.3483 179.551 66.8682 176.555ZM61.0993 186.094C59.6878 186.094 58.6445 185.789 57.7239 185.299C58.1535 184.81 58.5217 184.26 58.89 183.648L62.8177 176.861L63.4314 176.922C68.8935 178.084 66.7455 186.094 61.0993 186.094ZM63.6155 175.516L65.518 172.275C67.2364 169.339 69.3844 171.052 68.2184 173.253C67.2978 174.965 66.009 175.454 63.6155 175.516Z"
		fill="white" />
	<path
		d="M86.5682 184.077C86.2 185.423 86.9365 186.585 88.4707 186.585C89.3913 186.585 90.5574 185.973 91.7234 185.056C91.8462 185.973 92.5826 186.585 93.7486 186.585C94.9761 186.585 96.3262 185.728 97.6764 184.505C97.4309 185.728 97.9833 186.585 99.1493 186.585C100.438 186.585 101.85 185.423 102.954 184.383C102.709 185.606 103.445 186.585 104.918 186.585C106.821 186.585 109.03 184.505 110.994 182.304C110.994 182.243 110.933 182.243 110.933 182.182C112.221 180.714 113.326 179.124 114.185 178.024C113.265 180.408 113.756 184.75 111.546 184.75C110.748 184.75 110.442 183.894 110.442 183.894L108.969 184.628C108.969 184.628 109.398 186.523 111.546 186.523C111.792 186.523 111.976 186.523 112.221 186.462H112.283C114.001 186.218 115.658 185.178 117.131 183.894C117.192 185.423 118.358 186.523 120.261 186.523C122.9 186.523 125.539 184.444 127.441 182.243C127.257 181.937 126.889 181.57 126.582 181.448L126.398 181.631C124.741 183.588 122.593 185.117 120.936 185.117C119.524 185.117 118.665 184.2 119.709 182.365L119.954 181.937C121.427 182.549 124.25 182.243 126.03 179.247L126.337 178.696C127.564 176.556 126.398 174.966 124.496 174.966C122.593 174.966 121.12 175.945 120.138 177.657L117.867 181.509H117.806L117.622 181.693C116.763 182.671 115.719 183.588 114.799 184.2C115.535 181.998 115.351 178.574 116.824 175.639L115.106 174.722C114.124 176.067 112.037 179.063 109.951 181.509L110.012 181.57L109.951 181.693C108.294 183.649 106.637 185.178 105.593 185.178C105.102 185.178 104.795 184.811 105.348 183.894L110.319 175.211H107.987L103.875 182.426C102.095 184.016 100.745 184.934 100.315 184.75C99.763 184.505 100.315 183.649 100.622 183.16L105.164 175.272H102.832L99.1493 181.631C99.0879 181.57 99.0266 181.57 98.9652 181.509L98.7811 181.693C97.1241 183.649 95.467 185.178 94.4237 185.178C93.9328 185.178 93.6259 184.811 94.1783 183.894L97.9219 177.351H96.5717C96.6331 176.373 95.6512 175.027 94.1169 175.027C92.8895 175.027 91.1097 176.006 90.1278 177.718L87.7957 181.754C87.6729 181.631 87.5502 181.57 87.4274 181.509L87.2433 181.693C85.5863 183.649 83.4383 185.178 81.7813 185.178C80.3698 185.178 79.5106 184.261 80.5539 182.426L82.9473 178.268C84.2975 175.945 86.691 176.373 85.2794 178.757L84.9726 179.308H86.8751L87.1819 178.757C88.4094 176.617 87.2433 175.027 85.3408 175.027C83.4383 175.027 81.9654 176.006 80.9835 177.718L78.6514 181.693C78.59 181.631 78.5286 181.631 78.4673 181.57L78.2831 181.754C76.6261 183.711 74.4781 185.239 72.8211 185.239C71.4096 185.239 70.5504 184.322 71.5937 182.488L71.8392 182.06C73.3121 182.671 76.1352 182.365 77.9149 179.369L78.2218 178.819C79.4492 176.678 78.2831 175.088 76.3806 175.088C74.4781 175.088 73.0052 176.067 72.0233 177.779L69.5685 181.937C68.0956 184.383 69.3843 186.707 72.146 186.707C74.1713 186.707 76.2579 185.484 77.9149 183.894C77.8535 185.484 79.081 186.707 81.0448 186.707C83.0087 186.585 84.9112 185.484 86.5682 184.077ZM122.163 178.207C123.514 175.883 125.907 176.311 124.496 178.696L124.189 179.247C123.084 181.142 121.55 181.081 120.691 180.775L122.163 178.207ZM88.9003 183.894L92.153 178.268C93.3804 176.128 95.8966 176.678 94.7306 178.757L92.8895 181.937C91.4779 184.139 90.0664 185.178 89.1458 185.178C88.6549 185.117 88.348 184.811 88.9003 183.894ZM74.0485 178.207C75.3987 175.883 77.7922 176.311 76.3806 178.696L76.0738 179.247C74.9691 181.142 73.4348 181.081 72.5756 180.775L74.0485 178.207Z"
		fill="white" />
	<path
		d="M152.972 186.583C155.611 186.583 158.25 184.504 160.152 182.303C159.968 181.997 159.6 181.63 159.293 181.508L159.109 181.691C157.452 183.648 155.304 185.177 153.647 185.177C152.235 185.177 151.376 184.26 152.419 182.425L152.665 181.997C154.138 182.609 156.961 182.303 158.741 179.306L159.047 178.756C160.275 176.616 159.109 175.026 157.206 175.026C155.304 175.026 153.831 176.004 152.849 177.717L150.578 181.569C150.578 181.569 150.517 181.569 150.517 181.508L150.333 181.691C148.676 183.648 147.019 185.177 145.975 185.177C145.484 185.177 145.178 184.81 145.73 183.893L149.105 178.022C150.087 176.249 149.167 174.965 147.878 174.965C146.896 174.965 145.791 175.515 144.625 176.738L148.369 170.318H145.975L139.409 181.63C139.347 181.569 139.225 181.508 139.163 181.447L138.979 181.63C137.322 183.587 135.665 185.116 134.622 185.116C134.131 185.116 133.824 184.749 134.376 183.831L139.347 175.148H141.25L141.925 174.048H140.022L142.232 170.256H139.9L137.69 174.048H135.604L134.929 175.148H137.077L132.412 183.22C131.43 184.932 132.106 186.522 134.008 186.522C135.174 186.522 136.401 185.788 137.69 184.688L136.77 186.277H139.102L142.661 180.163C146.221 175.699 147.817 176.249 146.835 177.961L143.827 183.22C142.845 184.932 143.521 186.522 145.423 186.522C146.835 186.522 148.43 185.421 149.903 183.954C149.903 185.483 151.069 186.583 152.972 186.583ZM154.874 178.206C156.224 175.882 158.618 176.31 157.206 178.695L156.899 179.245C155.795 181.141 154.26 181.08 153.401 180.774L154.874 178.206Z"
		fill="white" />
	<path
		d="M223.548 181.508L223.364 181.692C221.707 183.649 220.05 185.177 219.007 185.177C218.516 185.177 218.209 184.81 218.762 183.893L226.617 170.318H224.285L220.848 176.188C220.419 175.516 219.682 174.965 218.7 174.965C217.473 174.965 215.693 175.944 214.711 177.656L212.44 181.569C212.379 181.569 212.318 181.508 212.318 181.508L212.133 181.692C210.476 183.649 208.819 185.177 207.776 185.177C207.285 185.177 206.978 184.81 207.531 183.893L210.906 178.023C211.888 176.249 210.967 174.965 209.679 174.965C208.697 174.965 207.592 175.516 206.426 176.678L207.285 175.149H204.953L201.209 181.569C201.148 181.508 201.087 181.447 200.964 181.447L200.78 181.631C199.123 183.587 197.466 185.116 196.422 185.116C195.931 185.116 195.625 184.749 196.177 183.832L199.921 177.289H198.755C198.816 176.311 197.834 174.965 196.3 174.965C195.072 174.965 193.293 175.944 192.311 177.656L190.04 181.508L189.917 181.631C188.26 183.587 186.603 185.116 185.56 185.116C185.069 185.116 184.762 184.749 185.314 183.832L187.646 179.796C188.444 178.39 188.076 177.595 187.34 176.678L186.051 175.088C185.744 174.66 185.744 174.17 186.173 173.742L184.946 172.397C183.596 173.559 183.535 174.904 184.332 175.944L184.516 176.188C183.473 177.656 182.123 179.613 180.589 181.386C180.65 181.447 180.711 181.508 180.773 181.569C178.87 183.771 177.213 185.177 175.372 185.972L178.318 180.958H176.047L175.802 181.386C174.574 183.526 173.163 185.116 171.322 185.116C169.726 185.116 169.419 183.526 170.831 181.141L171.506 179.98C171.935 180.041 172.365 180.102 172.856 180.102C181.141 180.102 185.13 169.034 177.827 169.034C176.538 169.034 175.004 169.951 173.961 171.724L170.34 177.962C168.99 177.228 168.253 175.944 168.253 174.66C168.253 173.559 168.744 172.519 169.726 171.724L168.99 170.379C167.333 171.541 166.596 173.131 166.596 174.721C166.596 176.555 167.639 178.329 169.542 179.307L168.867 180.53C167.21 183.343 167.517 186.461 170.831 186.461C171.813 186.461 172.672 186.156 173.347 185.728L172.733 186.767C169.603 187.746 167.639 188.969 167.639 190.742C167.639 192.943 171.076 193.432 172.733 190.558L174.513 187.501C176.906 186.767 179.3 185.116 181.878 182.12C181.816 182.059 181.816 181.998 181.755 181.875C182.798 180.652 183.657 179.49 185.437 177.106L185.744 177.472C186.051 177.839 186.173 178.329 185.867 178.818L183.412 183.098C182.43 184.81 183.105 186.4 185.007 186.4C186.173 186.4 187.462 185.666 188.69 184.566C188.69 185.605 189.365 186.4 190.715 186.4C191.635 186.4 192.802 185.789 193.968 184.872C194.09 185.789 194.827 186.4 195.993 186.4C197.098 186.4 198.325 185.728 199.491 184.688L198.632 186.156H200.964L204.523 179.98C208.083 175.516 209.679 176.127 208.635 177.839L205.628 183.098C204.646 184.81 205.321 186.4 207.224 186.4C208.451 186.4 209.801 185.544 211.152 184.382C211.029 185.544 211.765 186.4 213.177 186.4C214.097 186.4 215.263 185.789 216.429 184.872C216.552 185.789 217.289 186.4 218.455 186.4C220.357 186.4 222.567 184.321 224.53 182.12C224.285 181.998 223.855 181.631 223.548 181.508ZM175.74 172.825C176.415 171.663 177.213 171.113 177.827 171.113C181.509 171.113 178.932 178.634 172.856 178.634H172.365L175.74 172.825ZM170.769 190.314C170.278 191.17 169.481 191.048 169.481 190.436C169.481 189.825 170.033 189.152 171.813 188.479L170.769 190.314ZM195.134 181.875C193.722 184.077 192.311 185.116 191.39 185.116C190.899 185.116 190.592 184.749 191.145 183.832L194.397 178.206C195.625 176.066 198.141 176.616 196.975 178.695L195.134 181.875ZM217.657 181.753C216.245 184.077 214.834 185.116 213.852 185.116C213.361 185.116 213.054 184.749 213.606 183.832L216.859 178.206C218.086 176.066 220.603 176.616 219.437 178.695L217.657 181.753Z"
		fill="white" />
	<path
		d="M145.791 203.522L145.607 203.705C143.95 205.662 142.293 207.191 141.25 207.191C140.759 207.191 140.452 206.824 141.004 205.907L144.38 200.036C145.362 198.263 144.441 196.979 143.152 196.979C142.17 196.979 141.066 197.529 139.9 198.691L140.759 197.162H138.427L134.683 203.644C134.56 203.583 134.499 203.522 134.376 203.461L134.192 203.644C133.149 204.806 131.86 205.356 130.694 205.356L132.903 201.565C134.315 199.119 133.026 196.856 130.817 196.856C129.037 196.856 127.626 197.59 126.275 199.914L125.109 201.871L124.127 203.583C124.066 203.522 124.005 203.522 123.943 203.461L123.759 203.644C121.857 205.845 120.2 207.252 118.358 208.047L124.741 197.162H122.409L118.297 204.317C116.517 205.968 115.106 206.885 114.676 206.701C114.124 206.457 114.676 205.601 114.983 205.112L119.525 197.223H117.192L113.449 203.644C113.387 203.583 113.326 203.583 113.265 203.522L113.081 203.705C111.424 205.662 109.767 207.191 108.723 207.191C108.232 207.191 107.925 206.824 108.478 205.907L111.853 200.036C112.835 198.263 111.915 196.979 110.626 196.979C109.644 196.979 108.539 197.529 107.373 198.691L108.232 197.162H105.9L102.157 203.583C102.095 203.522 102.034 203.461 101.911 203.461L101.727 203.644C100.07 205.601 98.4129 207.13 97.3696 207.13C96.8786 207.13 96.5718 206.763 97.1241 205.845L100.868 199.302H99.5176C99.579 198.324 98.597 196.979 97.0627 196.979C95.8353 196.979 94.0556 197.957 93.0736 199.669L90.6802 203.827C90.496 203.705 90.3119 203.583 90.1892 203.522L90.0051 203.705C88.3481 205.662 86.2614 207.191 83.9907 207.191C82.3951 207.191 81.4131 205.601 82.8247 203.216L83.4997 202.054C83.9293 202.115 84.3589 202.176 84.8499 202.176C87.3047 202.176 90.1278 200.892 91.9689 197.713C92.644 196.551 92.8895 195.511 92.8895 194.594C92.8895 192.515 91.5394 191.108 89.821 191.108C88.5322 191.108 86.9979 192.026 85.9546 193.799L82.3337 200.036C80.9835 199.302 80.2471 198.018 80.2471 196.734C80.2471 195.633 80.738 194.594 81.72 193.799L80.9835 192.454C79.3265 193.616 78.5901 195.205 78.5901 196.795C78.5901 198.63 79.6334 200.403 81.5359 201.382L80.8608 202.604C79.2038 205.417 80.1857 208.536 83.4997 208.536C86.0773 208.536 88.0412 207.374 89.6368 205.845C89.1459 207.313 89.8823 208.536 91.5394 208.536C92.4599 208.536 93.626 207.924 94.792 207.007C94.9148 207.924 95.6512 208.536 96.8173 208.536C97.9219 208.536 99.1494 207.863 100.315 206.824L99.4562 208.291H101.788L105.348 202.115C108.907 197.651 110.503 198.263 109.46 199.975L106.453 205.234C105.471 206.946 106.146 208.536 108.048 208.536C109.276 208.536 110.687 207.68 112.037 206.457C111.73 207.741 112.344 208.536 113.51 208.536C114.615 208.536 115.904 207.619 116.947 206.64L115.658 208.842C112.528 209.759 110.503 211.043 110.503 212.816C110.503 215.018 113.94 215.507 115.597 212.633L117.377 209.576C119.34 208.964 121.243 207.741 123.268 205.784C122.961 209.025 127.257 209.759 129.896 206.457H130.387C131.246 206.457 132.412 206.151 133.456 205.54L131.922 208.23H134.254L137.813 202.054C141.373 197.59 142.968 198.202 141.925 199.914L138.918 205.173C137.936 206.885 138.611 208.475 140.513 208.475C142.416 208.475 144.625 206.396 146.589 204.194C146.528 204.011 146.098 203.644 145.791 203.522ZM87.8571 194.839C88.5322 193.677 89.33 193.126 89.9437 193.126C90.8029 193.126 91.2325 193.677 91.2325 194.533C91.2325 196.673 88.5935 200.587 84.9727 200.587H84.4817L87.8571 194.839ZM96.0808 203.889C94.6693 206.09 93.2577 207.13 92.3372 207.13C91.8462 207.13 91.5394 206.763 92.0917 205.845L95.3444 200.22C96.5718 198.079 99.088 198.63 97.9219 200.709L96.0808 203.889ZM113.756 212.327C113.265 213.183 112.467 213.061 112.467 212.45C112.467 211.838 113.019 211.165 114.799 210.493L113.756 212.327ZM129.467 203.644H129.344C128.607 203.644 127.994 204.256 127.994 205.05C127.994 205.356 128.055 205.601 128.239 205.845V205.907C127.135 207.802 124.496 207.435 125.846 204.989L128.73 200.036C130.387 197.285 132.597 198.385 131.185 200.77L129.467 203.644Z"
		fill="white" />
	<path
		d="M199.736 204.318C199.614 203.951 199.184 203.584 198.877 203.523L198.693 203.706C197.834 204.685 196.791 205.602 195.87 206.213C196.607 204.012 196.422 200.588 197.895 197.652L196.177 196.735C195.195 198.08 193.108 201.077 191.022 203.523L190.838 203.706C189.181 205.663 187.524 207.192 186.48 207.192C185.989 207.192 185.498 206.702 185.498 205.602V204.623C187.155 204.807 188.874 203.767 189.979 201.872L190.592 200.771C192.74 197.041 189.242 195.818 186.849 198.019L190.163 192.271H187.831L181.202 203.767C181.08 203.645 180.896 203.523 180.773 203.462L180.589 203.645C178.932 205.602 176.784 207.13 175.127 207.13C173.715 207.13 172.856 206.213 173.899 204.379L176.293 200.221C177.643 197.897 180.036 198.325 178.625 200.71L178.318 201.26H180.22L180.527 200.71C181.755 198.57 180.589 196.98 178.686 196.98C176.784 196.98 175.311 197.958 174.329 199.67L172.058 203.584C171.997 203.584 171.935 203.523 171.935 203.523L171.751 203.706C170.094 205.663 168.437 207.192 167.394 207.192C166.903 207.192 166.596 206.825 167.148 205.908L172.12 197.224H169.787L165.676 204.44C163.896 206.03 162.546 206.947 162.116 206.764C161.564 206.519 162.116 205.663 162.423 205.174L166.964 197.285H164.632L160.091 205.051C159.6 205.479 159.047 205.907 158.618 206.274C159.354 204.073 159.17 200.649 160.643 197.714L158.925 196.796C157.943 198.142 152.604 205.235 150.456 207.681C150.64 207.987 151.008 208.231 151.315 208.476C152.665 206.947 157.084 201.26 157.881 200.159C156.961 202.544 157.452 206.886 155.242 206.886C154.445 206.886 154.138 206.03 154.138 206.03L152.665 206.764C152.665 206.764 153.094 208.659 155.242 208.659C155.488 208.659 155.672 208.659 155.918 208.598H155.979C157.145 208.415 158.311 207.925 159.416 207.13C159.416 208.048 159.968 208.659 160.95 208.659C162.239 208.659 163.65 207.497 164.755 206.458C164.51 207.681 165.246 208.659 166.719 208.659C168.192 208.659 169.787 207.497 171.322 205.969C171.322 207.497 172.549 208.659 174.452 208.659C176.354 208.659 178.195 207.62 179.852 206.213L178.563 208.476H180.896L183.535 203.89V205.724C183.535 207.681 183.903 208.72 185.805 208.72C187.708 208.72 189.917 206.641 191.881 204.44C193.231 202.911 194.336 201.321 195.195 200.221C194.274 202.605 194.765 206.947 192.556 206.947C191.758 206.947 191.451 206.091 191.451 206.091L189.979 206.825C189.979 206.825 190.408 208.72 192.556 208.72C192.802 208.72 192.986 208.72 193.231 208.659H193.293C195.625 208.231 198.018 206.336 199.736 204.318ZM184.271 202.483L184.946 201.321C187.646 197.591 189.488 198.631 188.628 200.037L187.524 201.933C186.849 203.156 184.823 204.012 184.271 202.483Z"
		fill="white" />
	<path
		d="M199.675 205.907C198.939 205.907 198.325 206.519 198.325 207.253C198.325 207.986 198.877 208.598 199.675 208.598C200.412 208.598 201.025 208.048 201.025 207.253C201.025 206.519 200.412 205.907 199.675 205.907Z"
		fill="white" />
	<path d="M199.798 204.989H202.13L209.433 192.332H207.101L199.798 204.989Z" fill="white" />
	<path
		d="M49.8682 170.38C49.8682 170.563 49.8068 170.747 49.7455 170.93C49.6841 171.114 49.5614 171.297 49.4386 171.419C49.3159 171.542 49.1318 171.664 48.9476 171.786C48.7635 171.847 48.518 171.909 48.2726 171.909C47.9657 171.909 47.7202 171.847 47.4747 171.725C47.2293 171.603 46.9838 171.48 46.7997 171.297C46.6155 171.114 46.5542 170.93 46.4314 170.686C46.3701 170.441 46.3087 170.196 46.3087 169.891C46.3087 169.34 46.4314 168.912 46.6155 168.423C46.7997 167.995 47.0451 167.567 47.4134 167.261C47.5361 167.139 47.7202 166.955 47.9043 166.833C48.0884 166.711 48.2726 166.589 48.4567 166.527C48.6408 166.466 48.7635 166.344 48.8863 166.283C49.009 166.222 49.0704 166.222 49.1318 166.161L49.9909 167.384C49.8682 167.445 49.6841 167.506 49.5 167.628C49.3159 167.689 49.1318 167.812 48.9476 167.934C48.7635 168.056 48.6408 168.24 48.518 168.423C48.3953 168.606 48.3339 168.79 48.3339 169.035C48.7635 169.035 49.0704 169.157 49.3772 169.401C49.7455 169.585 49.8682 169.952 49.8682 170.38ZM54.7165 170.38C54.7165 170.563 54.6551 170.747 54.5938 170.93C54.5324 171.114 54.4097 171.297 54.2869 171.419C54.1642 171.542 53.9801 171.664 53.796 171.786C53.6118 171.847 53.3664 171.909 53.1209 171.909C52.814 171.909 52.5685 171.847 52.3231 171.725C52.0776 171.603 51.8321 171.48 51.648 171.297C51.5252 171.114 51.4025 170.93 51.2797 170.686C51.2184 170.441 51.157 170.196 51.157 169.891C51.157 169.34 51.2797 168.912 51.4639 168.423C51.648 167.995 51.8935 167.567 52.2617 167.261C52.3844 167.139 52.5685 166.955 52.7526 166.833C52.9368 166.711 53.1209 166.589 53.305 166.527C53.4891 166.466 53.6118 166.344 53.7346 166.283C53.8573 166.222 53.9187 166.222 53.9801 166.161L54.8393 167.384C54.7165 167.445 54.5324 167.506 54.3483 167.628C54.1642 167.689 53.9801 167.812 53.796 167.934C53.6118 168.056 53.4891 168.24 53.3664 168.423C53.2436 168.606 53.1822 168.79 53.1822 169.035C53.6118 169.035 53.9187 169.157 54.2256 169.401C54.5324 169.585 54.7165 169.952 54.7165 170.38Z"
		fill="white" />
	<path
		d="M217.411 206.396C217.411 206.213 217.473 206.03 217.534 205.846C217.595 205.663 217.718 205.479 217.841 205.357C217.964 205.235 218.148 205.112 218.332 204.99C218.516 204.929 218.761 204.868 219.007 204.868C219.314 204.868 219.559 204.929 219.805 205.051C220.05 205.173 220.296 205.296 220.48 205.479C220.664 205.663 220.725 205.846 220.848 206.091C220.909 206.335 220.971 206.58 220.971 206.886C220.971 207.436 220.848 207.864 220.664 208.353C220.48 208.781 220.234 209.209 219.866 209.515C219.743 209.637 219.559 209.821 219.375 209.943C219.191 210.065 219.007 210.188 218.823 210.249C218.639 210.31 218.516 210.432 218.393 210.493C218.27 210.555 218.209 210.555 218.148 210.616L217.289 209.393C217.411 209.332 217.595 209.27 217.779 209.148C217.964 209.087 218.148 208.965 218.332 208.842C218.516 208.72 218.639 208.537 218.761 208.353C218.884 208.17 218.946 207.986 218.946 207.742C218.516 207.742 218.209 207.619 217.902 207.375C217.595 207.191 217.411 206.825 217.411 206.396ZM212.624 206.396C212.624 206.213 212.686 206.03 212.747 205.846C212.808 205.663 212.931 205.479 213.054 205.357C213.177 205.235 213.361 205.112 213.545 204.99C213.729 204.929 213.974 204.868 214.22 204.868C214.527 204.868 214.772 204.929 215.018 205.051C215.263 205.173 215.509 205.296 215.693 205.479C215.816 205.663 215.938 205.846 216.061 206.091C216.122 206.335 216.184 206.58 216.184 206.886C216.184 207.436 216.061 207.864 215.877 208.353C215.693 208.781 215.447 209.209 215.079 209.515C214.956 209.637 214.772 209.821 214.588 209.943C214.404 210.065 214.22 210.188 214.036 210.249C213.852 210.31 213.729 210.432 213.606 210.493C213.484 210.555 213.422 210.555 213.361 210.616L212.502 209.393C212.686 209.332 212.808 209.27 212.993 209.148C213.177 209.087 213.361 208.965 213.545 208.842C213.729 208.72 213.852 208.537 213.974 208.353C214.097 208.17 214.159 207.986 214.159 207.742C213.729 207.742 213.422 207.619 213.115 207.375C212.747 207.191 212.624 206.825 212.624 206.396Z"
		fill="white" />
</svg>
