<svg xmlns="http://www.w3.org/2000/svg"><symbol id="full" viewBox="0 0 283 215"><path d="m102.034 43.434-.123.122c-.859.917-1.841 1.345-2.762 1.345l1.719-2.996c1.104-1.896.061-3.73-1.657-3.73-1.412 0-2.517.55-3.56 2.385l-.92 1.59-.737 1.284-.123.122c-1.35 1.529-2.639 2.752-3.436 2.752-.43 0-.614-.306-.185-.979l3.928-6.848h1.473l.552-.857H94.67l1.719-2.996h-1.842l-1.718 2.996h-1.657l-.552.857h1.657l-3.683 6.36c-.797 1.344-.245 2.628 1.228 2.628 1.043 0 2.27-.794 3.375-1.895 0 2.324 3.253 2.813 5.217.306h.43c1.104 0 2.822-.673 3.743-1.774 0-.306-.307-.55-.552-.672Zm-3.928.122h-.061c-.614 0-1.105.49-1.105 1.1 0 .245.061.429.184.612v.061c-.86 1.468-2.946 1.223-1.902-.733l1.411-2.385.86-1.468c1.288-2.201 3.068-1.345 1.963.55l-1.35 2.263ZM127.503 43.433l-.123.123c-1.35 1.528-3.007 2.751-4.296 2.751-1.105 0-1.78-.733-.982-2.2l.184-.307c1.166.49 3.437.245 4.787-2.14l.246-.428c.981-1.712.061-2.935-1.473-2.935-1.473 0-2.639.795-3.437 2.14l-1.78 3.058-.123.122c-1.35 1.529-2.639 2.752-3.436 2.752-.43 0-.614-.306-.185-.979l2.639-4.647c.798-1.407.062-2.385-.982-2.385-.797 0-1.657.428-2.577 1.407l2.946-5.076h-1.841l-5.094 8.744-.123.123c-1.35 1.528-2.639 2.751-3.437 2.751-.429 0-.613-.305-.184-.978l3.928-6.849h1.473l.552-.856h-1.534l1.718-2.996h-1.841l-1.718 2.996h-1.657l-.553.856h1.657l-3.682 6.36c-.798 1.345-.245 2.63 1.228 2.63.736 0 1.534-.368 2.332-.98l-.491.796h1.841l2.761-4.831c2.824-3.547 4.051-3.057 3.315-1.712l-2.394 4.158c-.798 1.345-.245 2.63 1.227 2.63 1.105 0 2.333-.857 3.437-1.957.062 1.162 1.044 1.956 2.516 1.956 2.087 0 4.174-1.59 5.647-3.363.061-.367-.246-.611-.491-.734Zm-3.499-2.568c1.044-1.834 2.946-1.529 1.842.367l-.246.428c-.859 1.468-2.086 1.468-2.762 1.223l1.166-2.018ZM194.458 43.434l-.122.122c-.676.795-1.473 1.468-2.21 2.018.614-1.773.43-4.403 1.596-6.788l-1.35-.733c-.737 1.039-2.394 3.424-4.112 5.38l-.123.123c-1.35 1.529-2.639 2.752-3.437 2.752-.429 0-.613-.306-.184-.979l3.928-6.849h-1.841l-3.253 5.687c-1.411 1.285-2.455 1.957-2.823 1.835-.43-.184 0-.856.246-1.284l3.559-6.238h-1.841l-2.884 4.954-.123.122c-.859.917-1.841 1.345-2.762 1.345l1.718-2.996c1.105-1.896.062-3.73-1.657-3.73-1.411 0-2.516.55-3.559 2.385l-.921 1.59-.736 1.284-.123.122c-1.35 1.529-3.007 2.752-4.296 2.752-1.104 0-1.78-.734-.982-2.202l.184-.306c1.166.49 3.437.245 4.787-2.14l.246-.428c.982-1.712.061-2.935-1.473-2.935-1.473 0-2.639.795-3.437 2.14l-1.78 3.058-.122.122c-1.535 1.773-2.823 2.874-4.296 3.486l4.111-7.033h-1.104c0-.733-.798-1.773-1.903-1.773-.982 0-2.393.795-3.13 2.14l-1.779 3.058-.123.122c-1.35 1.529-2.639 2.752-3.437 2.752-.429 0-.614-.306-.184-.979l1.841-3.18c.614-1.1.307-1.773-.245-2.507l-1.044-1.223c-.245-.305-.245-.733.123-1.039l-.982-1.04c-1.043.918-1.105 1.957-.491 2.813l.184.184c-.798 1.162-1.902 2.69-3.13 4.097l-.122.122c-.86.917-1.842 1.345-2.762 1.345l1.718-2.996c1.105-1.896.062-3.73-1.657-3.73-1.411 0-2.516.55-3.559 2.385l-.921 1.59-.736 1.284-.123.122c-1.534 1.773-2.823 2.874-4.296 3.486l4.112-7.033h-1.105c0-.733-.798-1.773-1.902-1.773-.982 0-2.394.795-3.13 2.14l-2.578 4.464c-.798 1.345-.245 2.63 1.228 2.63.491 0 1.104-.245 1.779-.612l-.491.856c-2.454.734-4.05 1.773-4.05 3.119 0 1.773 2.7 2.14 4.05-.122l1.412-2.385c1.473-.428 2.884-1.346 4.419-2.752 0 2.324 3.252 2.813 5.216.306h.43c1.104 0 2.823-.673 3.743-1.774.86-1.04 1.596-1.956 3.069-3.913l.245.306c.246.305.307.672.123 1.04l-1.964 3.362c-.797 1.346-.245 2.63 1.228 2.63.92 0 1.964-.612 2.946-1.468 0 .856.552 1.468 1.595 1.468.491 0 1.105-.245 1.78-.612l-.43.734c-2.454.734-4.05 1.773-4.05 3.119 0 1.773 2.7 2.14 4.05-.123l1.412-2.384c1.473-.49 2.946-1.346 4.48-2.813.061 1.162.982 1.956 2.516 1.956 1.473 0 3.007-.856 4.235-1.956-.062 2.385 3.252 2.874 5.216.367h.43c.552 0 1.35-.184 2.025-.55-.491 1.283-.061 2.14.982 2.14.982 0 2.148-.918 3.007-1.774-.184.979.43 1.773 1.596 1.773 1.534 0 3.253-1.59 4.787-3.363 1.043-1.223 1.964-2.507 2.639-3.363-.737 1.896-.307 5.32-2.087 5.32-.613 0-.859-.673-.859-.673l-1.166.612s.307 1.467 2.025 1.467c.184 0 .307 0 .491-.06h.062c1.902-.245 3.743-1.713 5.093-3.303-.061-.306-.368-.611-.675-.672Zm-26.328-2.569c1.043-1.834 2.946-1.528 1.841.367l-.245.428c-.859 1.468-2.087 1.468-2.762 1.223l1.166-2.018Zm-35.104 9.54c-.368.672-.982.611-.982.06 0-.488.43-1.039 1.841-1.59l-.859 1.53Zm.859-4.097c-.43 0-.614-.306-.184-.979l2.578-4.464c.981-1.712 2.945-1.284 2.025.367l-1.412 2.446c-1.104 1.774-2.27 2.63-3.007 2.63Zm11.292-2.752h-.061c-.614 0-1.105.49-1.105 1.1 0 .245.062.429.184.612v.061c-.859 1.468-2.945 1.223-1.902-.733l1.411-2.385.86-1.468c1.288-2.201 3.068-1.345 1.964.55l-1.351 2.263Zm11.538 6.849c-.368.672-.982.611-.982.06 0-.488.43-1.039 1.841-1.59l-.859 1.53Zm.859-4.097c-.429 0-.613-.306-.184-.979l2.578-4.464c.982-1.712 2.946-1.284 2.025.367l-1.412 2.446c-1.104 1.774-2.27 2.63-3.007 2.63Zm18.105-2.752h-.062c-.613 0-1.104.49-1.104 1.1 0 .245.061.429.184.612v.061c-.859 1.468-2.946 1.223-1.903-.733l1.412-2.385.859-1.468c1.289-2.201 3.069-1.345 1.964.55l-1.35 2.263ZM80.492 41.476H62.756V42.7h17.736v-1.223ZM219.805 41.476h-17.737V42.7h17.737v-1.223Z" fill="#766458"/><path d="M100.684.63h4.725l-.736 27.455h-8.9l-1.227-11.312-1.227 11.312h-8.96L83.684.63h4.664l.368 22.748h.491L92.214.629h4.665l3.007 22.748h.491l.307-22.748ZM120.199 28.146h-12.826V.63h12.826v4.709h-8.162v6.604h6.505v4.708h-6.505v6.666h8.162v4.83ZM133.333 23.377v4.77h-11.231V.628h4.664v22.748h6.567ZM143.275 17.996l4.726-1.101v8.316c0 1.59-1.351 2.874-2.885 2.874h-7.058c-1.595 0-2.884-1.345-2.884-2.874V3.503A2.876 2.876 0 0 1 138.058.63h7.058c1.534 0 2.885 1.284 2.885 2.874v5.565l-4.726 1.1V5.277H139.9v18.039h3.375v-5.32ZM160.766.63c1.534 0 2.884 1.283 2.884 2.873V25.15c0 1.59-1.35 2.874-2.884 2.874h-7.058c-1.596 0-2.884-1.345-2.884-2.874V3.503A2.875 2.875 0 0 1 153.708.63h7.058Zm-1.841 4.708h-3.376v18.039h3.376V5.337ZM178.993.63h4.664v27.455h-4.664V14.571l-1.903 6.971h-4.602l-1.841-6.97v13.513h-4.665V.63h4.665l4.173 13.27 4.173-13.27ZM198.816 28.146h-12.827V.63h12.827v4.709h-8.163v6.604h6.506v4.708h-6.506v6.666h8.163v4.83Z" fill="#81B3D3"/><use href="#sedona" width="282" height="48.8" y="83.1"/><path d="M66.868 176.555c4.726-1.59 5.033-7.46.43-7.46-1.289 0-2.823.917-3.867 2.69l-6.26 10.824c-.306.489-.552.917-.92 1.345-1.596-2.201-1.166-5.503 1.105-6.971l-.92-1.162c-4.91 3.119-3.438 12.047 4.725 12.047 6.935 0 10.187-8.317 5.707-11.313Zm-5.769 9.539c-1.411 0-2.454-.305-3.375-.795.43-.489.798-1.039 1.166-1.651l3.928-6.787.613.061c5.463 1.162 3.315 9.172-2.332 9.172Zm2.517-10.578 1.902-3.241c1.718-2.936 3.866-1.223 2.7.978-.92 1.712-2.209 2.201-4.603 2.263Z" fill="#fff"/><path d="M86.568 184.077c-.368 1.346.368 2.508 1.903 2.508.92 0 2.086-.612 3.252-1.529.123.917.86 1.529 2.026 1.529 1.227 0 2.577-.857 3.927-2.08-.245 1.223.307 2.08 1.473 2.08 1.289 0 2.701-1.162 3.805-2.202-.245 1.223.491 2.202 1.964 2.202 1.903 0 4.112-2.08 6.076-4.281 0-.061-.061-.061-.061-.122 1.288-1.468 2.393-3.058 3.252-4.158-.92 2.384-.429 6.726-2.639 6.726-.798 0-1.104-.856-1.104-.856l-1.473.734s.429 1.895 2.577 1.895c.246 0 .43 0 .675-.061h.062c1.718-.244 3.375-1.284 4.848-2.568.061 1.529 1.227 2.629 3.13 2.629 2.639 0 5.278-2.079 7.18-4.28-.184-.306-.552-.673-.859-.795l-.184.183c-1.657 1.957-3.805 3.486-5.462 3.486-1.412 0-2.271-.917-1.227-2.752l.245-.428c1.473.612 4.296.306 6.076-2.69l.307-.551c1.227-2.14.061-3.73-1.841-3.73-1.903 0-3.376.979-4.358 2.691l-2.271 3.852h-.061l-.184.184c-.859.978-1.903 1.895-2.823 2.507.736-2.202.552-5.626 2.025-8.561l-1.718-.917c-.982 1.345-3.069 4.341-5.155 6.787l.061.061-.061.123c-1.657 1.956-3.314 3.485-4.358 3.485-.491 0-.798-.367-.245-1.284l4.971-8.683h-2.332l-4.112 7.215c-1.78 1.59-3.13 2.508-3.56 2.324-.552-.245 0-1.101.307-1.59l4.542-7.888h-2.332l-3.683 6.359c-.061-.061-.122-.061-.184-.122l-.184.184c-1.657 1.956-3.314 3.485-4.357 3.485-.491 0-.798-.367-.246-1.284l3.744-6.543h-1.35c.061-.978-.92-2.324-2.455-2.324-1.228 0-3.007.979-3.99 2.691l-2.331 4.036a1.269 1.269 0 0 0-.369-.245l-.184.184c-1.657 1.956-3.805 3.485-5.462 3.485-1.411 0-2.27-.917-1.227-2.752l2.393-4.158c1.35-2.323 3.744-1.895 2.332.489l-.306.551h1.902l.307-.551c1.227-2.14.061-3.73-1.841-3.73-1.903 0-3.376.979-4.357 2.691l-2.333 3.975c-.061-.062-.122-.062-.184-.123l-.184.184c-1.657 1.957-3.805 3.485-5.462 3.485-1.411 0-2.27-.917-1.227-2.751l.245-.428c1.473.611 4.296.305 6.076-2.691l.307-.55c1.227-2.141.061-3.731-1.841-3.731-1.903 0-3.376.979-4.358 2.691l-2.454 4.158c-1.473 2.446-.185 4.77 2.577 4.77 2.025 0 4.112-1.223 5.769-2.813-.062 1.59 1.166 2.813 3.13 2.813 1.964-.122 3.866-1.223 5.523-2.63Zm35.595-5.87c1.351-2.324 3.744-1.896 2.333.489l-.307.551c-1.105 1.895-2.639 1.834-3.498 1.528l1.472-2.568ZM88.9 183.894l3.253-5.626c1.227-2.14 3.744-1.59 2.578.489l-1.841 3.18c-1.412 2.202-2.824 3.241-3.744 3.241-.491-.061-.798-.367-.246-1.284Zm-14.852-5.687c1.35-2.324 3.744-1.896 2.333.489l-.307.551c-1.105 1.895-2.64 1.834-3.498 1.528l1.473-2.568ZM152.972 186.583c2.639 0 5.278-2.079 7.18-4.28-.184-.306-.552-.673-.859-.795l-.184.183c-1.657 1.957-3.805 3.486-5.462 3.486-1.412 0-2.271-.917-1.228-2.752l.246-.428c1.473.612 4.296.306 6.076-2.691l.306-.55c1.228-2.14.062-3.73-1.841-3.73-1.902 0-3.375.978-4.357 2.691l-2.271 3.852s-.061 0-.061-.061l-.184.183c-1.657 1.957-3.314 3.486-4.358 3.486-.491 0-.797-.367-.245-1.284l3.375-5.871c.982-1.773.062-3.057-1.227-3.057-.982 0-2.087.55-3.253 1.773l3.744-6.42h-2.394l-6.566 11.312c-.062-.061-.184-.122-.246-.183l-.184.183c-1.657 1.957-3.314 3.486-4.357 3.486-.491 0-.798-.367-.246-1.285l4.971-8.683h1.903l.675-1.1h-1.903l2.21-3.792H139.9l-2.21 3.792h-2.086l-.675 1.1h2.148l-4.665 8.072c-.982 1.712-.306 3.302 1.596 3.302 1.166 0 2.393-.734 3.682-1.834l-.92 1.589h2.332l3.559-6.114c3.56-4.464 5.156-3.914 4.174-2.202l-3.008 5.259c-.982 1.712-.306 3.302 1.596 3.302 1.412 0 3.007-1.101 4.48-2.568 0 1.529 1.166 2.629 3.069 2.629Zm1.902-8.377c1.35-2.324 3.744-1.896 2.332.489l-.307.55c-1.104 1.896-2.639 1.835-3.498 1.529l1.473-2.568ZM223.548 181.508l-.184.184c-1.657 1.957-3.314 3.485-4.357 3.485-.491 0-.798-.367-.245-1.284l7.855-13.575h-2.332l-3.437 5.87c-.429-.672-1.166-1.223-2.148-1.223-1.227 0-3.007.979-3.989 2.691l-2.271 3.913c-.061 0-.122-.061-.122-.061l-.185.184c-1.657 1.957-3.314 3.485-4.357 3.485-.491 0-.798-.367-.245-1.284l3.375-5.87c.982-1.774.061-3.058-1.227-3.058-.982 0-2.087.551-3.253 1.713l.859-1.529h-2.332l-3.744 6.42c-.061-.061-.122-.122-.245-.122l-.184.184c-1.657 1.956-3.314 3.485-4.358 3.485-.491 0-.797-.367-.245-1.284l3.744-6.543h-1.166c.061-.978-.921-2.324-2.455-2.324-1.228 0-3.007.979-3.989 2.691l-2.271 3.852-.123.123c-1.657 1.956-3.314 3.485-4.357 3.485-.491 0-.798-.367-.246-1.284l2.332-4.036c.798-1.406.43-2.201-.306-3.118l-1.289-1.59c-.307-.428-.307-.918.122-1.346l-1.227-1.345c-1.35 1.162-1.411 2.507-.614 3.547l.184.244c-1.043 1.468-2.393 3.425-3.927 5.198l.184.183c-1.903 2.202-3.56 3.608-5.401 4.403l2.946-5.014h-2.271l-.245.428c-1.228 2.14-2.639 3.73-4.48 3.73-1.596 0-1.903-1.59-.491-3.975l.675-1.161c.429.061.859.122 1.35.122 8.285 0 12.274-11.068 4.971-11.068-1.289 0-2.823.917-3.866 2.69l-3.621 6.238c-1.35-.734-2.087-2.018-2.087-3.302 0-1.101.491-2.141 1.473-2.936l-.736-1.345c-1.657 1.162-2.394 2.752-2.394 4.342 0 1.834 1.043 3.608 2.946 4.586l-.675 1.223c-1.657 2.813-1.35 5.931 1.964 5.931a4.69 4.69 0 0 0 2.516-.733l-.614 1.039c-3.13.979-5.094 2.202-5.094 3.975 0 2.201 3.437 2.69 5.094-.184l1.78-3.057c2.393-.734 4.787-2.385 7.365-5.381-.062-.061-.062-.122-.123-.245 1.043-1.223 1.902-2.385 3.682-4.769l.307.366c.307.367.429.857.123 1.346l-2.455 4.28c-.982 1.712-.307 3.302 1.595 3.302 1.166 0 2.455-.734 3.683-1.834 0 1.039.675 1.834 2.025 1.834.92 0 2.087-.611 3.253-1.528.122.917.859 1.528 2.025 1.528 1.105 0 2.332-.672 3.498-1.712l-.859 1.468h2.332l3.559-6.176c3.56-4.464 5.156-3.853 4.112-2.141l-3.007 5.259c-.982 1.712-.307 3.302 1.596 3.302 1.227 0 2.577-.856 3.928-2.018-.123 1.162.613 2.018 2.025 2.018.92 0 2.086-.611 3.252-1.528.123.917.86 1.528 2.026 1.528 1.902 0 4.112-2.079 6.075-4.28-.245-.122-.675-.489-.982-.612Zm-47.808-8.683c.675-1.162 1.473-1.712 2.087-1.712 3.682 0 1.105 7.521-4.971 7.521h-.491l3.375-5.809Zm-4.971 17.489c-.491.856-1.288.734-1.288.122 0-.611.552-1.284 2.332-1.957l-1.044 1.835Zm24.365-8.439c-1.412 2.202-2.823 3.241-3.744 3.241-.491 0-.798-.367-.245-1.284l3.252-5.626c1.228-2.14 3.744-1.59 2.578.489l-1.841 3.18Zm22.523-.122c-1.412 2.324-2.823 3.363-3.805 3.363-.491 0-.798-.367-.246-1.284l3.253-5.626c1.227-2.14 3.744-1.59 2.578.489l-1.78 3.058ZM145.791 203.522l-.184.183c-1.657 1.957-3.314 3.486-4.357 3.486-.491 0-.798-.367-.246-1.284l3.376-5.871c.982-1.773.061-3.057-1.228-3.057-.982 0-2.086.55-3.252 1.712l.859-1.529h-2.332l-3.744 6.482c-.123-.061-.184-.122-.307-.183l-.184.183c-1.043 1.162-2.332 1.712-3.498 1.712l2.209-3.791c1.412-2.446.123-4.709-2.086-4.709-1.78 0-3.191.734-4.542 3.058l-1.166 1.957-.982 1.712c-.061-.061-.122-.061-.184-.122l-.184.183c-1.902 2.201-3.559 3.608-5.401 4.403l6.383-10.885h-2.332l-4.112 7.155c-1.78 1.651-3.191 2.568-3.621 2.384-.552-.244 0-1.1.307-1.589l4.542-7.889h-2.333l-3.743 6.421c-.062-.061-.123-.061-.184-.122l-.184.183c-1.657 1.957-3.314 3.486-4.358 3.486-.491 0-.798-.367-.245-1.284l3.375-5.871c.982-1.773.062-3.057-1.227-3.057-.982 0-2.087.55-3.253 1.712l.859-1.529H105.9l-3.743 6.421c-.062-.061-.123-.122-.246-.122l-.184.183c-1.657 1.957-3.314 3.486-4.357 3.486-.491 0-.798-.367-.246-1.285l3.744-6.543h-1.35c.061-.978-.921-2.323-2.455-2.323-1.228 0-3.007.978-3.99 2.69l-2.393 4.158c-.184-.122-.368-.244-.49-.305l-.185.183c-1.657 1.957-3.744 3.486-6.014 3.486-1.596 0-2.578-1.59-1.166-3.975l.675-1.162c.43.061.859.122 1.35.122 2.455 0 5.278-1.284 7.119-4.463.675-1.162.92-2.202.92-3.119 0-2.079-1.35-3.486-3.068-3.486-1.289 0-2.823.918-3.866 2.691l-3.621 6.237c-1.35-.734-2.087-2.018-2.087-3.302 0-1.101.491-2.14 1.473-2.935l-.736-1.345c-1.657 1.162-2.394 2.751-2.394 4.341 0 1.835 1.043 3.608 2.946 4.587l-.675 1.222c-1.657 2.813-.675 5.932 2.639 5.932 2.577 0 4.541-1.162 6.137-2.691-.491 1.468.245 2.691 1.902 2.691.92 0 2.087-.612 3.253-1.529.123.917.86 1.529 2.025 1.529 1.105 0 2.332-.673 3.498-1.712l-.859 1.467h2.332l3.56-6.176c3.559-4.464 5.155-3.852 4.112-2.14l-3.007 5.259c-.982 1.712-.307 3.302 1.595 3.302 1.228 0 2.639-.856 3.989-2.079-.307 1.284.307 2.079 1.473 2.079 1.105 0 2.394-.917 3.437-1.896l-1.289 2.202c-3.13.917-5.155 2.201-5.155 3.974 0 2.202 3.437 2.691 5.094-.183l1.78-3.057c1.963-.612 3.866-1.835 5.891-3.792-.307 3.241 3.989 3.975 6.628.673h.491c.859 0 2.025-.306 3.069-.917l-1.534 2.69h2.332l3.559-6.176c3.56-4.464 5.155-3.852 4.112-2.14l-3.007 5.259c-.982 1.712-.307 3.302 1.595 3.302 1.903 0 4.112-2.079 6.076-4.281-.061-.183-.491-.55-.798-.672Zm-57.934-8.683c.675-1.162 1.473-1.713 2.087-1.713.859 0 1.288.551 1.288 1.407 0 2.14-2.638 6.054-6.26 6.054h-.49l3.375-5.748Zm8.224 9.05c-1.412 2.201-2.823 3.241-3.744 3.241-.49 0-.798-.367-.245-1.285l3.252-5.625c1.228-2.141 3.744-1.59 2.578.489l-1.841 3.18Zm17.675 8.438c-.491.856-1.289.734-1.289.123 0-.612.552-1.285 2.332-1.957l-1.043 1.834Zm15.711-8.683h-.123c-.737 0-1.35.612-1.35 1.406 0 .306.061.551.245.795v.062c-1.104 1.895-3.743 1.528-2.393-.918l2.884-4.953c1.657-2.751 3.867-1.651 2.455.734l-1.718 2.874ZM199.736 204.318c-.122-.367-.552-.734-.859-.795l-.184.183c-.859.979-1.902 1.896-2.823 2.507.737-2.201.552-5.625 2.025-8.561l-1.718-.917c-.982 1.345-3.069 4.342-5.155 6.788l-.184.183c-1.657 1.957-3.314 3.486-4.358 3.486-.491 0-.982-.49-.982-1.59v-.979c1.657.184 3.376-.856 4.481-2.751l.613-1.101c2.148-3.73-1.35-4.953-3.743-2.752l3.314-5.748h-2.332l-6.629 11.496a1.841 1.841 0 0 0-.429-.305l-.184.183c-1.657 1.957-3.805 3.485-5.462 3.485-1.412 0-2.271-.917-1.228-2.751l2.394-4.158c1.35-2.324 3.743-1.896 2.332.489l-.307.55h1.902l.307-.55c1.228-2.14.062-3.73-1.841-3.73-1.902 0-3.375.978-4.357 2.69l-2.271 3.914c-.061 0-.123-.061-.123-.061l-.184.183c-1.657 1.957-3.314 3.486-4.357 3.486-.491 0-.798-.367-.246-1.284l4.972-8.684h-2.333l-4.111 7.216c-1.78 1.59-3.13 2.507-3.56 2.324-.552-.245 0-1.101.307-1.59l4.541-7.889h-2.332l-4.541 7.766c-.491.428-1.044.856-1.473 1.223.736-2.201.552-5.625 2.025-8.56l-1.718-.918c-.982 1.346-6.321 8.439-8.469 10.885.184.306.552.55.859.795 1.35-1.529 5.769-7.216 6.566-8.317-.92 2.385-.429 6.727-2.639 6.727-.797 0-1.104-.856-1.104-.856l-1.473.734s.429 1.895 2.577 1.895c.246 0 .43 0 .676-.061h.061c1.166-.183 2.332-.673 3.437-1.468 0 .918.552 1.529 1.534 1.529 1.289 0 2.7-1.162 3.805-2.201-.245 1.223.491 2.201 1.964 2.201 1.473 0 3.068-1.162 4.603-2.69 0 1.528 1.227 2.69 3.13 2.69 1.902 0 3.743-1.039 5.4-2.446l-1.289 2.263h2.333l2.639-4.586v1.834c0 1.957.368 2.996 2.27 2.996 1.903 0 4.112-2.079 6.076-4.28 1.35-1.529 2.455-3.119 3.314-4.219-.921 2.384-.43 6.726-2.639 6.726-.798 0-1.105-.856-1.105-.856l-1.472.734s.429 1.895 2.577 1.895c.246 0 .43 0 .675-.061h.062c2.332-.428 4.725-2.323 6.443-4.341Zm-15.465-1.835.675-1.162c2.7-3.73 4.542-2.69 3.682-1.284l-1.104 1.896c-.675 1.223-2.701 2.079-3.253.55ZM199.675 205.907a1.36 1.36 0 0 0-1.35 1.346c0 .733.552 1.345 1.35 1.345.737 0 1.35-.55 1.35-1.345a1.36 1.36 0 0 0-1.35-1.346ZM199.798 204.989h2.332l7.303-12.657h-2.332l-7.303 12.657ZM49.868 170.38c0 .183-.061.367-.123.55a1.323 1.323 0 0 1-.306.489 3.325 3.325 0 0 1-.491.367c-.184.061-.43.123-.675.123-.307 0-.553-.062-.798-.184-.246-.122-.491-.245-.675-.428-.184-.183-.246-.367-.369-.611-.06-.245-.122-.49-.122-.795 0-.551.122-.979.306-1.468.185-.428.43-.856.798-1.162.123-.122.307-.306.491-.428s.369-.244.553-.306c.184-.061.306-.183.43-.244.122-.061.183-.061.245-.122l.859 1.223c-.123.061-.307.122-.491.244-.184.061-.368.184-.552.306-.184.122-.307.306-.43.489a1.03 1.03 0 0 0-.184.612c.43 0 .736.122 1.043.366.368.184.491.551.491.979Zm4.849 0c0 .183-.062.367-.123.55a1.323 1.323 0 0 1-.307.489c-.123.123-.307.245-.491.367-.184.061-.43.123-.675.123-.307 0-.553-.062-.798-.184s-.49-.245-.675-.428a5.377 5.377 0 0 1-.368-.611c-.062-.245-.123-.49-.123-.795 0-.551.123-.979.307-1.468.184-.428.43-.856.798-1.162.122-.122.306-.306.49-.428.185-.122.369-.244.553-.306.184-.061.307-.183.43-.244.122-.061.184-.061.245-.122l.86 1.223c-.123.061-.308.122-.492.244-.184.061-.368.184-.552.306-.184.122-.307.306-.43.489a1.03 1.03 0 0 0-.184.612c.43 0 .737.122 1.044.366.306.184.49.551.49.979ZM217.411 206.396c0-.183.062-.366.123-.55.061-.183.184-.367.307-.489s.307-.245.491-.367c.184-.061.429-.122.675-.122.307 0 .552.061.798.183.245.122.491.245.675.428.184.184.245.367.368.612.061.244.123.489.123.795 0 .55-.123.978-.307 1.467-.184.428-.43.856-.798 1.162-.123.122-.307.306-.491.428s-.368.245-.552.306c-.184.061-.307.183-.43.244-.123.062-.184.062-.245.123l-.859-1.223c.122-.061.306-.123.49-.245.185-.061.369-.183.553-.306.184-.122.307-.305.429-.489.123-.183.185-.367.185-.611-.43 0-.737-.123-1.044-.367-.307-.184-.491-.55-.491-.979Zm-4.787 0c0-.183.062-.366.123-.55.061-.183.184-.367.307-.489s.307-.245.491-.367c.184-.061.429-.122.675-.122.307 0 .552.061.798.183.245.122.491.245.675.428.123.184.245.367.368.612.061.244.123.489.123.795 0 .55-.123.978-.307 1.467-.184.428-.43.856-.798 1.162-.123.122-.307.306-.491.428s-.368.245-.552.306c-.184.061-.307.183-.43.244-.122.062-.184.062-.245.123l-.859-1.223c.184-.061.306-.123.491-.245.184-.061.368-.183.552-.306.184-.122.307-.305.429-.489.123-.183.185-.367.185-.611-.43 0-.737-.123-1.044-.367-.368-.184-.491-.55-.491-.979Z" fill="#fff"/></symbol><symbol id="sedona" viewBox="0 0 229 39"><path d="M27.316 26.637c0 .25-.05.452-.05.653-.251 2.01-.903 3.97-1.955 5.78a11.456 11.456 0 0 1-4.26 4.221c-.652.302-1.354.553-2.055.804-.702.201-1.404.402-2.105.553-.602.1-1.153.201-1.755.252-.601.05-1.152.1-1.704.1h-.601a19.727 19.727 0 0 1-6.867-1.558C3.76 36.437 1.754 35.18 0 33.572l4.661-7.488.1.1.1.1a24.24 24.24 0 0 0 3.56 3.217c1.302.955 2.856 1.508 4.56 1.608.05 0 .1 0 .15.05.05 0 .1.051.15.051.051 0 .101 0 .151.05.05 0 .1.05.15.05.151 0 .301 0 .502-.05.15 0 .35-.05.501-.1.601-.1 1.203-.352 1.754-.704.552-.352 1.003-.754 1.303-1.306.05-.101.1-.151.1-.252.05-.1.1-.15.1-.251.101-.251.151-.503.151-.754.05-.251.05-.452.05-.653 0-1.056-.45-1.96-1.353-2.664a11.45 11.45 0 0 0-2.957-1.659c-.451-.15-.852-.301-1.203-.402-.4-.1-.752-.2-1.103-.25-.05 0-.1 0-.1-.051-.05 0-.1-.05-.1-.05a17.415 17.415 0 0 1-5.363-2.262C4.21 18.847 3.057 17.39 2.406 15.43l-.3-1.206c-.101-.452-.151-.854-.201-1.357-.05-.15-.05-.302-.05-.452v-.453c0-.301 0-.603.05-.955 0-.301.05-.603.15-.954.1-.754.3-1.558.601-2.312A8.31 8.31 0 0 1 3.71 5.629C4.962 3.569 6.566 2.11 8.52 1.206 10.375.452 12.43 0 14.535 0c.501 0 1.002.05 1.554.1.5.05 1.052.151 1.604.202 1.403.25 2.806.603 4.16 1.155a26.973 26.973 0 0 1 3.809 1.91l-3.208 7.187a28.007 28.007 0 0 0-3.308-2.06c-1.153-.604-2.406-.855-3.759-.855h-.501c-.902.1-1.704.503-2.506 1.206-.752.704-1.153 1.408-1.153 2.212 0 .1 0 .251.05.351 0 .101.05.252.15.352.1.252.2.503.401.754.2.252.401.453.652.654.451.351 1.053.653 1.854.954.802.302 1.654.553 2.557.855.751.2 1.453.402 2.155.553.701.15 1.303.351 1.754.502 2.155.754 3.81 2.06 4.912 3.87 1.102 1.81 1.654 3.72 1.704 5.73v.25c-.05.252-.05.503-.1.755Zm30.072 3.116v8.342H34.633V.905h22.755v8.141h-12.78v6.484h12.028v7.94H44.607v6.283h12.78Zm38.392-1.458c-1.203 2.563-2.907 4.674-5.162 6.282a16.313 16.313 0 0 1-5.915 2.564c-2.155.452-4.31.753-6.465.854-.602.05-1.253.05-1.855.05H64.456V.855h12.58c.602 0 1.203 0 1.754.05 2.105.1 4.16.402 6.215.854a14.634 14.634 0 0 1 5.614 2.563c2.155 1.508 3.859 3.518 5.062 6.031 1.203 2.513 1.904 5.076 2.055 7.69.05.25.05.452.05.703v1.508a21.36 21.36 0 0 1-2.005 8.041Zm-8.22-9.197c0-.15 0-.302-.05-.452a12.73 12.73 0 0 0-1.052-4.272c-.602-1.357-1.454-2.463-2.556-3.317A6.884 6.884 0 0 0 81.195 9.7c-1.002-.252-2.005-.352-3.057-.402h-3.759v20.505c.1 0 .25 0 .4.05.151 0 .251.05.402.05.15 0 .3 0 .4.05.1 0 .251.05.351.05.401 0 .802 0 1.203-.05.451 0 .852-.05 1.203-.1 1.003-.1 2.005-.251 2.957-.503.953-.25 1.855-.703 2.606-1.206 1.254-.904 2.156-2.11 2.757-3.668.602-1.558.902-3.167.902-4.825v-.553Zm54.932 1.96c0 .402-.05.804-.15 1.206-.1.804-.201 1.608-.451 2.413-.201.804-.501 1.608-.802 2.362-1.654 3.769-4.16 6.684-7.618 8.795-3.459 2.06-7.067 3.116-10.877 3.116-.25 0-.551 0-.801-.05-.251 0-.502-.05-.802-.05-1.304-.101-2.607-.353-3.91-.704a20.084 20.084 0 0 1-3.759-1.458c-3.258-1.709-5.814-4.171-7.668-7.338-1.855-3.166-2.807-6.483-2.807-9.9 0-.503 0-1.005.05-1.508.05-.503.1-1.055.251-1.558.2-1.005.451-2.01.802-3.066.35-1.005.751-2.01 1.303-2.965 1.804-3.317 4.26-5.83 7.468-7.589 3.157-1.759 6.515-2.613 9.974-2.613.451 0 .952 0 1.403.05.501.05.952.1 1.403.1a21.556 21.556 0 0 1 8.32 3.015c2.757 1.81 4.912 4.172 6.416 7.138 1.503 2.965 2.255 6.08 2.255 9.297v1.307Zm-10.124-2.11c0-.252-.05-.453-.05-.704a14.214 14.214 0 0 0-1.504-4.825 9.008 9.008 0 0 0-3.358-3.619 11.453 11.453 0 0 0-1.153-.502c-.401-.151-.751-.302-1.152-.402a9.23 9.23 0 0 0-1.153-.201c-.401-.05-.752-.1-1.153-.1-1.955 0-3.809.602-5.463 1.859a9.876 9.876 0 0 0-3.509 4.975c-.05.1-.05.15-.1.251 0 .1-.05.151-.05.252l-.301 1.055c-.1.352-.15.754-.25 1.156-.05.251-.05.553-.1.804 0 .252-.051.503-.051.804v.453c0 .15 0 .301.051.452.1 2.06.751 4.02 1.904 5.88 1.153 1.86 2.707 3.066 4.762 3.669.25.1.451.15.701.2l.752.152c.251.05.451.05.702.1.25 0 .451.05.701.05 2.055 0 3.91-.603 5.564-1.86 1.654-1.205 2.857-2.864 3.558-4.924l.301-1.206c.1-.453.15-.855.201-1.307.05-.252.05-.553.1-.804 0-.252.05-.503.05-.754v-.905Zm43.855 19.147-14.084-19.198c-.401-.452-.751-1.005-1.102-1.659-.351-.653-.702-1.306-1.003-2.01a19.608 19.608 0 0 1-.651-1.508 17.994 17.994 0 0 0-.602-1.357c.201 1.207.351 2.413.451 3.67a46.72 46.72 0 0 1 .151 3.718v18.344h-9.774V.905h9.774l13.983 19.098c.351.552.702 1.105 1.003 1.708.351.603.651 1.207.952 1.86.251.502.451 1.005.702 1.508.25.502.451 1.005.701 1.457-.05-.452-.1-.854-.15-1.206l-.15-1.206a18.192 18.192 0 0 1-.151-2.413c-.05-.804-.05-1.658-.05-2.512V.954h9.724v37.19h-9.724v-.05Zm42.653 0-1.855-6.684h-14.334l-1.905 6.735h-10.024L203.489.955h12.63L229 38.145h-10.124v-.05Zm-7.769-26.184c-.2-.603-.401-1.206-.551-1.86-.151-.653-.301-1.256-.451-1.91-.101-.25-.151-.452-.151-.653-.05-.2-.1-.402-.1-.603l-.15.603c-.05.201-.101.453-.151.654-.05.1-.05.15-.05.2 0 .051 0 .152-.05.202-.1.603-.251 1.156-.401 1.709l-.451 1.658-3.759 12.313h10.074l-3.809-12.313Z" fill="#fff"/></symbol></svg>